<?xml version="1.0" ?><svg id="Layer_1" style="enable-background:new 0 0 24 24;" version="1.1" viewBox="0 0 24 24" xml:space="preserve" xmlns="http://www.w3.org/2000/svg" xmlns:xlink="http://www.w3.org/1999/xlink"><g><g><path d="M11.5,15h-7C4.224,15,4,14.776,4,14.5v-7c0-0.133,0.053-0.26,0.146-0.354l3-3c0.143-0.144,0.36-0.187,0.545-0.108    C7.878,4.115,8,4.298,8,4.5V11h6.5c0.202,0,0.385,0.122,0.462,0.309s0.034,0.402-0.108,0.545l-3,3C11.76,14.947,11.633,15,11.5,15    z M5,14h6.293l2-2H7.5C7.224,12,7,11.776,7,11.5V5.707l-2,2V14z"/></g><g><path d="M18.5,14c-0.13,0-0.258-0.051-0.354-0.146l-3-3C15.053,10.76,15,10.633,15,10.5V4H8.5C8.367,4,8.24,3.947,8.146,3.854    l-3-3C5.004,0.71,4.961,0.496,5.038,0.309S5.298,0,5.5,0h13C18.776,0,19,0.224,19,0.5v13c0,0.202-0.122,0.385-0.309,0.462    C18.63,13.988,18.564,14,18.5,14z M16,10.293l2,2V1H6.707l2,2H15.5C15.776,3,16,3.224,16,3.5V10.293z"/></g><g><path d="M7.5,24c-0.183,0-0.359-0.101-0.447-0.276L4.5,18.618l-2.553,5.105c-0.123,0.248-0.423,0.346-0.671,0.224    c-0.247-0.124-0.347-0.424-0.224-0.671l3-6c0.17-0.339,0.725-0.339,0.895,0l3,6c0.123,0.247,0.023,0.547-0.224,0.671    C7.651,23.983,7.575,24,7.5,24z"/></g><g><path d="M6.5,23h-4C2.224,23,2,22.776,2,22.5S2.224,22,2.5,22h4C6.776,22,7,22.224,7,22.5S6.776,23,6.5,23z"/></g><g><path d="M15.5,24c-0.276,0-0.5-0.224-0.5-0.5V19l-2.1,2.8c-0.189,0.252-0.611,0.252-0.801,0L10,19v4.5c0,0.276-0.224,0.5-0.5,0.5    S9,23.776,9,23.5v-6c0-0.215,0.138-0.406,0.342-0.474C9.545,16.957,9.77,17.028,9.9,17.2l2.6,3.466l2.6-3.466    c0.13-0.172,0.356-0.243,0.559-0.174C15.862,17.094,16,17.285,16,17.5v6C16,23.776,15.776,24,15.5,24z"/></g><g><path d="M19.5,24h-2c-0.276,0-0.5-0.224-0.5-0.5v-6c0-0.276,0.224-0.5,0.5-0.5h2c1.93,0,3.5,1.57,3.5,3.5S21.43,24,19.5,24z     M18,23h1.5c1.379,0,2.5-1.122,2.5-2.5S20.879,18,19.5,18H18V23z"/></g></g><g/><g/><g/><g/><g/><g/><g/><g/><g/><g/><g/><g/><g/><g/><g/></svg>