<?xml version="1.0" standalone="no"?>
<!DOCTYPE svg PUBLIC "-//W3C//DTD SVG 20010904//EN"
 "http://www.w3.org/TR/2001/REC-SVG-20010904/DTD/svg10.dtd">
<svg version="1.0" xmlns="http://www.w3.org/2000/svg"
 width="128.000000pt" height="128.000000pt" viewBox="0 0 128.000000 128.000000"
 preserveAspectRatio="xMidYMid meet">
<metadata>
Created by potrace 1.15, written by Peter Selinger 2001-2017
</metadata>
<g transform="translate(0.000000,128.000000) scale(0.100000,-0.100000)"
fill="#000000" stroke="none">
<path d="M465 950 c-113 -24 -251 -94 -363 -182 l-62 -50 42 -81 c55 -106 166
-220 256 -265 89 -44 198 -66 285 -58 96 9 204 32 317 68 119 38 314 137 299
152 -2 2 -37 23 -77 46 l-73 41 -47 -39 c-74 -62 -186 -130 -259 -159 -60 -24
-83 -27 -188 -27 -110 -1 -125 1 -178 26 -76 36 -153 115 -201 207 l-38 73 47
48 c83 84 216 140 331 140 63 0 154 -27 211 -63 49 -31 123 -100 123 -114 0
-20 -129 -139 -182 -168 -73 -40 -166 -42 -222 -5 -40 27 -96 103 -96 131 0
23 43 56 91 70 60 18 119 -8 159 -72 l32 -49 27 20 c14 11 41 32 60 48 l33 28
-33 29 c-88 74 -191 93 -308 56 -59 -18 -148 -68 -170 -95 -17 -21 42 -128 99
-179 153 -138 368 -91 603 132 l58 55 -48 49 c-63 65 -177 140 -255 167 -70
24 -210 34 -273 20z"/>
</g>
</svg>
